<svg width="29" height="29" viewBox="0 0 29 29" fill="none" xmlns="http://www.w3.org/2000/svg">
<path d="M14.5 2.41663C12.1564 2.42108 9.86465 3.10696 7.90394 4.39073C5.94324 5.67449 4.39816 7.50074 3.45693 9.64701C2.51569 11.7933 2.21891 14.167 2.60274 16.4789C2.98657 18.7909 4.03443 20.9413 5.61871 22.6683C6.75022 23.8948 8.12351 24.8737 9.65205 25.5432C11.1806 26.2127 12.8312 26.5583 14.5 26.5583C16.1687 26.5583 17.8193 26.2127 19.3479 25.5432C20.8764 24.8737 22.2497 23.8948 23.3812 22.6683C24.9655 20.9413 26.0134 18.7909 26.3972 16.4789C26.781 14.167 26.4842 11.7933 25.543 9.64701C24.6018 7.50074 23.0567 5.67449 21.096 4.39073C19.1353 3.10696 16.8435 2.42108 14.5 2.41663ZM14.5 24.1666C11.9969 24.1628 9.59281 23.1882 7.79371 21.4479C8.33993 20.1181 9.26912 18.9808 10.4632 18.1804C11.6573 17.38 13.0624 16.9526 14.5 16.9526C15.9375 16.9526 17.3426 17.38 18.5367 18.1804C19.7308 18.9808 20.66 20.1181 21.2062 21.4479C19.4071 23.1882 17.0031 24.1628 14.5 24.1666ZM12.0833 12.0833C12.0833 11.6053 12.225 11.1381 12.4906 10.7407C12.7561 10.3432 13.1336 10.0335 13.5751 9.85058C14.0167 9.66767 14.5026 9.61981 14.9714 9.71306C15.4402 9.80631 15.8708 10.0365 16.2088 10.3745C16.5468 10.7124 16.7769 11.143 16.8702 11.6118C16.9634 12.0806 16.9156 12.5665 16.7327 13.0081C16.5498 13.4497 16.24 13.8271 15.8426 14.0927C15.4452 14.3582 14.9779 14.5 14.5 14.5C13.859 14.5 13.2443 14.2453 12.7911 13.7921C12.3379 13.3389 12.0833 12.7242 12.0833 12.0833ZM22.8495 19.3333C21.7699 17.4867 20.1083 16.0503 18.125 15.2491C18.7402 14.5515 19.1411 13.6912 19.2795 12.7714C19.4179 11.8516 19.2879 10.9113 18.9052 10.0636C18.5225 9.21577 17.9033 8.49643 17.1219 7.99183C16.3405 7.48724 15.4301 7.21884 14.5 7.21884C13.5698 7.21884 12.6594 7.48724 11.878 7.99183C11.0966 8.49643 10.4774 9.21577 10.0947 10.0636C9.71197 10.9113 9.58202 11.8516 9.72043 12.7714C9.85884 13.6912 10.2597 14.5515 10.875 15.2491C8.8916 16.0503 7.22998 17.4867 6.15037 19.3333C5.28997 17.8677 4.83537 16.1994 4.83329 14.5C4.83329 11.9362 5.85174 9.47745 7.66459 7.66459C9.47744 5.85174 11.9362 4.83329 14.5 4.83329C17.0637 4.83329 19.5225 5.85174 21.3353 7.66459C23.1482 9.47745 24.1666 11.9362 24.1666 14.5C24.1645 16.1994 23.7099 17.8677 22.8495 19.3333Z" fill="#E5EAFF"/>
</svg>
