<svg width="29" height="29" viewBox="0 0 29 29" fill="none" xmlns="http://www.w3.org/2000/svg">
<path d="M19.0517 8.25926C19.0517 10.9358 16.9666 13.0185 14.5 13.0185C12.0334 13.0185 9.94828 10.9358 9.94828 8.25926C9.94828 5.58272 12.0334 3.5 14.5 3.5C16.9666 3.5 19.0517 5.58272 19.0517 8.25926ZM11.6034 21.7407C11.6034 24.4173 9.5183 26.5 7.05172 26.5C4.58515 26.5 2.5 24.4173 2.5 21.7407C2.5 19.0642 4.58515 16.9815 7.05172 16.9815C9.5183 16.9815 11.6034 19.0642 11.6034 21.7407ZM26.5 21.7407C26.5 24.4173 24.4149 26.5 21.9483 26.5C19.4817 26.5 17.3966 24.4173 17.3966 21.7407C17.3966 19.0642 19.4817 16.9815 21.9483 16.9815C24.4149 16.9815 26.5 19.0642 26.5 21.7407Z" stroke="#E5EAFF" stroke-width="3"/>
</svg>
