<svg width="29" height="29" viewBox="0 0 29 29" fill="none" xmlns="http://www.w3.org/2000/svg">
<path d="M24.36 5.57042C23.0772 4.28717 21.3763 3.50698 19.5669 3.37171C17.7574 3.23644 15.9595 3.75509 14.5 4.83333C12.9626 3.68981 11.049 3.17128 9.14462 3.38217C7.2402 3.59305 5.48641 4.51769 4.23643 5.96987C2.98645 7.42206 2.33313 9.29392 2.40802 11.2085C2.48291 13.1231 3.28045 14.9382 4.64005 16.2883L13.6421 25.2904C13.7545 25.4037 13.8881 25.4936 14.0354 25.5549C14.1826 25.6163 14.3405 25.6478 14.5 25.6478C14.6596 25.6478 14.8175 25.6163 14.9647 25.5549C15.112 25.4936 15.2456 25.4037 15.358 25.2904L24.36 16.2883C25.0641 15.5847 25.6226 14.7493 26.0036 13.8298C26.3847 12.9103 26.5808 11.9247 26.5808 10.9294C26.5808 9.93403 26.3847 8.94845 26.0036 8.02893C25.6226 7.10942 25.0641 6.274 24.36 5.57042ZM22.6563 14.5846L14.5 22.7287L6.3438 14.5846C5.62505 13.8628 5.13543 12.9449 4.93637 11.946C4.7373 10.9471 4.83765 9.91157 5.22482 8.96945C5.612 8.02732 6.26876 7.22051 7.11272 6.65021C7.95667 6.07991 8.95025 5.77153 9.9688 5.76375C11.3295 5.76708 12.6333 6.31032 13.5938 7.27417C13.7061 7.38742 13.8398 7.47731 13.987 7.53866C14.1343 7.60001 14.2922 7.63159 14.4517 7.63159C14.6112 7.63159 14.7692 7.60001 14.9164 7.53866C15.0637 7.47731 15.1973 7.38742 15.3096 7.27417C16.2984 6.41732 17.5759 5.96813 18.8833 6.01753C20.1908 6.06692 21.4307 6.61121 22.352 7.54023C23.2734 8.46924 23.8073 9.7136 23.8459 11.0214C23.8844 12.3293 23.4247 13.6029 22.5596 14.5846H22.6563Z" fill="#E5EAFF"/>
</svg>
