<svg width="23" height="22" viewBox="0 0 23 22" fill="none" xmlns="http://www.w3.org/2000/svg">
<path d="M11.5 2.0625C16.4281 2.0625 20.4375 6.07191 20.4375 11C20.4375 15.9281 16.4281 19.9375 11.5 19.9375C6.57191 19.9375 2.5625 15.9281 2.5625 11C2.5625 6.07191 6.57191 2.0625 11.5 2.0625ZM8.26402 13.264C8.1975 13.3272 8.14429 13.4031 8.10756 13.4872C8.07082 13.5713 8.05129 13.6619 8.05011 13.7536C8.04894 13.8454 8.06614 13.9365 8.10072 14.0215C8.13529 14.1065 8.18653 14.1837 8.25142 14.2486C8.31631 14.3135 8.39353 14.3647 8.47853 14.3993C8.56353 14.4339 8.6546 14.4511 8.74636 14.4499C8.83811 14.4487 8.92871 14.4292 9.0128 14.3924C9.09689 14.3557 9.17277 14.3025 9.23598 14.236L11.5 11.9724L13.764 14.236C13.894 14.3595 14.0671 14.4273 14.2464 14.425C14.4256 14.4227 14.5969 14.3505 14.7237 14.2237C14.8505 14.0969 14.9227 13.9256 14.925 13.7464C14.9273 13.5671 14.8595 13.394 14.736 13.264L12.4724 11L14.736 8.73598C14.8595 8.606 14.9273 8.43292 14.925 8.25364C14.9227 8.07437 14.8505 7.90309 14.7237 7.77631C14.5969 7.64953 14.4256 7.5773 14.2464 7.575C14.0671 7.57271 13.894 7.64053 13.764 7.76402L11.5 10.0276L9.23598 7.76402C9.106 7.64053 8.93292 7.57271 8.75364 7.575C8.57437 7.5773 8.40309 7.64953 8.27631 7.77631C8.14953 7.90309 8.0773 8.07437 8.075 8.25364C8.07271 8.43292 8.14053 8.606 8.26402 8.73598L10.5276 11L8.26402 13.264Z" fill="#403E51"/>
</svg>
