<svg width="29" height="29" viewBox="0 0 29 29" fill="none" xmlns="http://www.w3.org/2000/svg">
<path d="M24.1667 2.41669H12.0834C11.122 2.41669 10.1999 2.79861 9.52011 3.47842C8.84029 4.15824 8.45837 5.08028 8.45837 6.04169V14.5C8.45837 15.4614 8.84029 16.3835 9.52011 17.0633C10.1999 17.7431 11.122 18.125 12.0834 18.125H24.1667C25.1281 18.125 26.0502 17.7431 26.73 17.0633C27.4098 16.3835 27.7917 15.4614 27.7917 14.5V6.04169C27.7917 5.08028 27.4098 4.15824 26.73 3.47842C26.0502 2.79861 25.1281 2.41669 24.1667 2.41669ZM25.375 14.5C25.375 14.8205 25.2477 15.1278 25.0211 15.3544C24.7945 15.581 24.4872 15.7084 24.1667 15.7084H12.0834C11.7629 15.7084 11.4556 15.581 11.229 15.3544C11.0023 15.1278 10.875 14.8205 10.875 14.5V6.04169C10.875 5.72122 11.0023 5.41387 11.229 5.18727C11.4556 4.96066 11.7629 4.83335 12.0834 4.83335H24.1667C24.4872 4.83335 24.7945 4.96066 25.0211 5.18727C25.2477 5.41387 25.375 5.72122 25.375 6.04169V14.5ZM21.1459 9.66669C20.6985 9.6682 20.2678 9.83619 19.9375 10.1379C19.6777 9.90177 19.3549 9.74616 19.0083 9.69001C18.6617 9.63386 18.3062 9.6796 17.9851 9.82166C17.664 9.96372 17.3911 10.196 17.1995 10.4902C17.0079 10.7845 16.9059 11.1281 16.9059 11.4792C16.9059 11.8303 17.0079 12.1739 17.1995 12.4681C17.3911 12.7624 17.664 12.9946 17.9851 13.1367C18.3062 13.2788 18.6617 13.3245 19.0083 13.2684C19.3549 13.2122 19.6777 13.0566 19.9375 12.8204C20.1557 13.0188 20.419 13.1609 20.7046 13.2344C20.9901 13.3079 21.2893 13.3107 21.5762 13.2424C21.863 13.1742 22.1289 13.037 22.3507 12.8427C22.5726 12.6484 22.7436 12.403 22.8491 12.1276C22.9546 11.8523 22.9914 11.5554 22.9561 11.2626C22.9209 10.9699 22.8148 10.6901 22.647 10.4477C22.4792 10.2052 22.2547 10.0073 21.9931 9.87125C21.7316 9.73516 21.4407 9.66494 21.1459 9.66669ZM19.3334 20.5417C19.0129 20.5417 18.7056 20.669 18.479 20.8956C18.2523 21.1222 18.125 21.4295 18.125 21.75V22.9584C18.125 23.2788 17.9977 23.5862 17.7711 23.8128C17.5445 24.0394 17.2372 24.1667 16.9167 24.1667H4.83337C4.5129 24.1667 4.20556 24.0394 3.97895 23.8128C3.75235 23.5862 3.62504 23.2788 3.62504 22.9584V18.125H4.83337C5.15384 18.125 5.46119 17.9977 5.68779 17.7711C5.9144 17.5445 6.04171 17.2372 6.04171 16.9167C6.04171 16.5962 5.9144 16.2889 5.68779 16.0623C5.46119 15.8357 5.15384 15.7084 4.83337 15.7084H3.62504V14.5C3.62504 14.1795 3.75235 13.8722 3.97895 13.6456C4.20556 13.419 4.5129 13.2917 4.83337 13.2917C5.15384 13.2917 5.46119 13.1644 5.68779 12.9378C5.9144 12.7112 6.04171 12.4038 6.04171 12.0834C6.04171 11.7629 5.9144 11.4555 5.68779 11.2289C5.46119 11.0023 5.15384 10.875 4.83337 10.875C3.87196 10.875 2.94993 11.2569 2.27011 11.9368C1.59029 12.6166 1.20837 13.5386 1.20837 14.5V22.9584C1.20837 23.9198 1.59029 24.8418 2.27011 25.5216C2.94993 26.2014 3.87196 26.5834 4.83337 26.5834H16.9167C17.8781 26.5834 18.8002 26.2014 19.48 25.5216C20.1598 24.8418 20.5417 23.9198 20.5417 22.9584V21.75C20.5417 21.4295 20.4144 21.1222 20.1878 20.8956C19.9612 20.669 19.6538 20.5417 19.3334 20.5417ZM7.25004 21.75H8.45837C8.77884 21.75 9.08619 21.6227 9.31279 21.3961C9.5394 21.1695 9.66671 20.8622 9.66671 20.5417C9.66671 20.2212 9.5394 19.9139 9.31279 19.6873C9.08619 19.4607 8.77884 19.3334 8.45837 19.3334H7.25004C6.92957 19.3334 6.62223 19.4607 6.39562 19.6873C6.16901 19.9139 6.04171 20.2212 6.04171 20.5417C6.04171 20.8622 6.16901 21.1695 6.39562 21.3961C6.62223 21.6227 6.92957 21.75 7.25004 21.75Z" fill="#E5EAFF"/>
</svg>
