<svg width="24" height="25" viewBox="0 0 24 25" fill="none" xmlns="http://www.w3.org/2000/svg">
<path d="M21.92 12.4572C19.9 7.76718 16.1 4.85718 12 4.85718C7.9 4.85718 4.1 7.76718 2.08 12.4572C2.02493 12.5833 1.99651 12.7195 1.99651 12.8572C1.99651 12.9948 2.02493 13.131 2.08 13.2572C4.1 17.9472 7.9 20.8572 12 20.8572C16.1 20.8572 19.9 17.9472 21.92 13.2572C21.9751 13.131 22.0035 12.9948 22.0035 12.8572C22.0035 12.7195 21.9751 12.5833 21.92 12.4572ZM12 18.8572C8.83 18.8572 5.83 16.5672 4.1 12.8572C5.83 9.14718 8.83 6.85718 12 6.85718C15.17 6.85718 18.17 9.14718 19.9 12.8572C18.17 16.5672 15.17 18.8572 12 18.8572ZM12 8.85718C11.2089 8.85718 10.4355 9.09177 9.77772 9.5313C9.11992 9.97082 8.60723 10.5955 8.30448 11.3264C8.00173 12.0573 7.92252 12.8616 8.07686 13.6375C8.2312 14.4135 8.61216 15.1262 9.17157 15.6856C9.73098 16.245 10.4437 16.626 11.2196 16.7803C11.9956 16.9347 12.7998 16.8554 13.5307 16.5527C14.2616 16.2499 14.8864 15.7373 15.3259 15.0795C15.7654 14.4217 16 13.6483 16 12.8572C16 11.7963 15.5786 10.7789 14.8284 10.0288C14.0783 9.2786 13.0609 8.85718 12 8.85718ZM12 14.8572C11.6044 14.8572 11.2178 14.7399 10.8889 14.5201C10.56 14.3004 10.3036 13.988 10.1522 13.6225C10.0009 13.2571 9.96126 12.855 10.0384 12.467C10.1156 12.079 10.3061 11.7227 10.5858 11.443C10.8655 11.1633 11.2219 10.9728 11.6098 10.8956C11.9978 10.8184 12.3999 10.858 12.7654 11.0094C13.1308 11.1608 13.4432 11.4171 13.6629 11.746C13.8827 12.0749 14 12.4616 14 12.8572C14 13.3876 13.7893 13.8963 13.4142 14.2714C13.0391 14.6465 12.5304 14.8572 12 14.8572Z" fill="#F87054"/>
</svg>
