<svg width="18" height="15" viewBox="0 0 18 15" fill="none" xmlns="http://www.w3.org/2000/svg">
<path d="M0.8125 2C0.8125 1.7265 0.921149 1.46419 1.11455 1.2708C1.30794 1.0774 1.57025 0.96875 1.84375 0.96875H16.9688C17.2423 0.96875 17.5046 1.0774 17.698 1.2708C17.8913 1.46419 18 1.7265 18 2C18 2.2735 17.8913 2.53581 17.698 2.7292C17.5046 2.9226 17.2423 3.03125 16.9688 3.03125H1.84375C1.57025 3.03125 1.30794 2.9226 1.11455 2.7292C0.921149 2.53581 0.8125 2.2735 0.8125 2ZM3.5625 7.5C3.5625 7.2265 3.67115 6.96419 3.86455 6.7708C4.05794 6.5774 4.32025 6.46875 4.59375 6.46875H14.2188C14.4923 6.46875 14.7546 6.5774 14.948 6.7708C15.1413 6.96419 15.25 7.2265 15.25 7.5C15.25 7.7735 15.1413 8.03581 14.948 8.2292C14.7546 8.4226 14.4923 8.53125 14.2188 8.53125H4.59375C4.32025 8.53125 4.05794 8.4226 3.86455 8.2292C3.67115 8.03581 3.5625 7.7735 3.5625 7.5ZM6.3125 13C6.3125 12.7265 6.42115 12.4642 6.61455 12.2708C6.80794 12.0774 7.07025 11.9688 7.34375 11.9688H11.4688C11.7423 11.9688 12.0046 12.0774 12.198 12.2708C12.3913 12.4642 12.5 12.7265 12.5 13C12.5 13.2735 12.3913 13.5358 12.198 13.7292C12.0046 13.9226 11.7423 14.0312 11.4688 14.0312H7.34375C7.07025 14.0312 6.80794 13.9226 6.61455 13.7292C6.42115 13.5358 6.3125 13.2735 6.3125 13Z" fill="#F87054"/>
</svg>
