<svg width="29" height="29" viewBox="0 0 29 29" fill="none" xmlns="http://www.w3.org/2000/svg">
<path d="M24.1667 9.66667L16.9167 3.31084C16.252 2.7164 15.3917 2.38776 14.5 2.38776C13.6083 2.38776 12.7479 2.7164 12.0833 3.31084L4.83333 9.66667C4.44952 10.0099 4.14325 10.431 3.9349 10.9019C3.72655 11.3728 3.6209 11.8826 3.62499 12.3975V22.9583C3.62499 23.9197 4.00691 24.8418 4.68673 25.5216C5.36655 26.2014 6.28858 26.5833 7.24999 26.5833H21.75C22.7114 26.5833 23.6334 26.2014 24.3133 25.5216C24.9931 24.8418 25.375 23.9197 25.375 22.9583V12.3854C25.3774 11.8726 25.2709 11.365 25.0626 10.8964C24.8543 10.4277 24.5489 10.0086 24.1667 9.66667ZM16.9167 24.1667H12.0833V18.125C12.0833 17.8045 12.2106 17.4972 12.4372 17.2706C12.6638 17.044 12.9712 16.9167 13.2917 16.9167H15.7083C16.0288 16.9167 16.3361 17.044 16.5627 17.2706C16.7894 17.4972 16.9167 17.8045 16.9167 18.125V24.1667ZM22.9583 22.9583C22.9583 23.2788 22.831 23.5862 22.6044 23.8128C22.3778 24.0394 22.0705 24.1667 21.75 24.1667H19.3333V18.125C19.3333 17.1636 18.9514 16.2416 18.2716 15.5617C17.5918 14.8819 16.6697 14.5 15.7083 14.5H13.2917C12.3302 14.5 11.4082 14.8819 10.7284 15.5617C10.0486 16.2416 9.66666 17.1636 9.66666 18.125V24.1667H7.24999C6.92952 24.1667 6.62218 24.0394 6.39557 23.8128C6.16897 23.5862 6.04166 23.2788 6.04166 22.9583V12.3854C6.04188 12.2139 6.07863 12.0443 6.14946 11.888C6.2203 11.7318 6.3236 11.5924 6.45249 11.4792L13.7025 5.13542C13.923 4.9417 14.2065 4.83487 14.5 4.83487C14.7935 4.83487 15.077 4.9417 15.2975 5.13542L22.5475 11.4792C22.6764 11.5924 22.7797 11.7318 22.8505 11.888C22.9214 12.0443 22.9581 12.2139 22.9583 12.3854V22.9583Z" fill="#E5EAFF"/>
</svg>
