<svg width="24" height="24" viewBox="0 0 24 24" fill="none" xmlns="http://www.w3.org/2000/svg">
<path d="M12 1.99805C17.524 1.99805 22.002 6.47605 22.002 12C22.002 17.523 17.524 22 12 22C6.476 22.001 2 17.523 2 12C1.999 6.47605 6.476 1.99805 12 1.99805ZM11.996 10.248C11.7509 10.2484 11.5145 10.3387 11.3316 10.5018C11.1488 10.665 11.0322 10.8896 11.004 11.133L10.997 11.249L11.001 16.751L11.007 16.867C11.0349 17.111 11.1516 17.3361 11.3349 17.4995C11.5181 17.6629 11.755 17.7532 12.0005 17.7532C12.246 17.7532 12.4829 17.6629 12.6661 17.4995C12.8494 17.3361 12.9661 17.111 12.994 16.867L13 16.75L12.996 11.248L12.989 11.131C12.9601 10.8878 12.8429 10.6636 12.6597 10.5011C12.4765 10.3385 12.24 10.2488 11.995 10.249L11.996 10.248ZM12.001 6.49905C11.6691 6.49905 11.3508 6.6309 11.1161 6.8656C10.8814 7.1003 10.7495 7.41863 10.7495 7.75055C10.7495 8.08247 10.8814 8.40079 11.1161 8.63549C11.3508 8.87019 11.6691 9.00205 12.001 9.00205C12.1653 9.00198 12.3279 8.96956 12.4797 8.90663C12.6315 8.8437 12.7693 8.7515 12.8854 8.63528C13.0016 8.51907 13.0937 8.38112 13.1565 8.22932C13.2193 8.07752 13.2516 7.91483 13.2515 7.75055C13.2514 7.58626 13.219 7.4236 13.1561 7.27185C13.0932 7.12009 13.0009 6.98222 12.8847 6.8661C12.7685 6.74998 12.6306 6.65789 12.4788 6.59508C12.327 6.53227 12.1643 6.49998 12 6.50005L12.001 6.49905Z" fill="#F87054"/>
</svg>
