<svg width="29" height="29" viewBox="0 0 29 29" fill="none" xmlns="http://www.w3.org/2000/svg">
<path d="M26.4867 7.99917C26.3641 7.70391 26.1294 7.46928 25.8342 7.34667C25.6889 7.28475 25.5329 7.25191 25.375 7.25H19.3333C19.0129 7.25 18.7055 7.37731 18.4789 7.60391C18.2523 7.83052 18.125 8.13786 18.125 8.45833C18.125 8.7788 18.2523 9.08615 18.4789 9.31275C18.7055 9.53936 19.0129 9.66667 19.3333 9.66667H22.4629L15.7083 16.4212L11.7329 12.4337C11.6206 12.3205 11.487 12.2306 11.3397 12.1693C11.1925 12.1079 11.0345 12.0763 10.875 12.0763C10.7155 12.0763 10.5576 12.1079 10.4103 12.1693C10.2631 12.2306 10.1294 12.3205 10.0171 12.4337L2.76709 19.6838C2.65384 19.7961 2.56394 19.9297 2.5026 20.077C2.44125 20.2242 2.40967 20.3822 2.40967 20.5417C2.40967 20.7012 2.44125 20.8591 2.5026 21.0064C2.56394 21.1536 2.65384 21.2873 2.76709 21.3996C2.87942 21.5128 3.01306 21.6027 3.16031 21.6641C3.30756 21.7254 3.46549 21.757 3.62501 21.757C3.78452 21.757 3.94246 21.7254 4.0897 21.6641C4.23695 21.6027 4.37059 21.5128 4.48292 21.3996L10.875 14.9954L14.8504 18.9829C14.9628 19.0962 15.0964 19.1861 15.2436 19.2474C15.3909 19.3088 15.5488 19.3403 15.7083 19.3403C15.8679 19.3403 16.0258 19.3088 16.173 19.2474C16.3203 19.1861 16.4539 19.0962 16.5663 18.9829L24.1667 11.3704V14.5C24.1667 14.8205 24.294 15.1278 24.5206 15.3544C24.7472 15.581 25.0545 15.7083 25.375 15.7083C25.6955 15.7083 26.0028 15.581 26.2294 15.3544C26.456 15.1278 26.5833 14.8205 26.5833 14.5V8.45833C26.5814 8.30043 26.5486 8.14444 26.4867 7.99917Z" fill="#E5EAFF"/>
</svg>
