<svg width="18" height="18" viewBox="0 0 18 18" fill="none" xmlns="http://www.w3.org/2000/svg">
<path d="M15.75 15.75L12.4928 12.4927M12.4928 12.4927C13.0499 11.9356 13.4919 11.2741 13.7935 10.5461C14.095 9.81816 14.2502 9.03792 14.2502 8.24997C14.2502 7.46202 14.095 6.68178 13.7935 5.95381C13.4919 5.22584 13.0499 4.56439 12.4928 4.00722C11.9356 3.45006 11.2742 3.00809 10.5462 2.70655C9.81822 2.40502 9.03798 2.24982 8.25003 2.24982C7.46208 2.24982 6.68184 2.40502 5.95387 2.70655C5.2259 3.00809 4.56445 3.45006 4.00728 4.00722C2.88204 5.13247 2.24988 6.65863 2.24988 8.24997C2.24988 9.84131 2.88204 11.3675 4.00728 12.4927C5.13253 13.618 6.65869 14.2501 8.25003 14.2501C9.84137 14.2501 11.3675 13.618 12.4928 12.4927Z" stroke="#403E51" stroke-width="2" stroke-linecap="round" stroke-linejoin="round"/>
</svg>
