<svg width="255" height="56" viewBox="0 0 255 56" fill="none" xmlns="http://www.w3.org/2000/svg">
<path d="M80.5762 22.4737L79.0335 39.7895H74.2949L76.6091 15.2526H83.221L89.4657 32.8632L95.5266 15.2526H102.139L104.379 39.7895H99.604L97.9143 22.5474L91.4492 40.0474L87.078 40.4526L80.5762 22.4737Z" fill="white"/>
<path d="M111.18 48.0421C110.053 48.0421 108.878 47.7719 107.653 47.2316L108.425 42.9579C109.355 43.4246 110.139 43.6579 110.776 43.6579C111.535 43.6579 112.098 43.4123 112.465 42.9211C112.857 42.4298 113.274 41.5702 113.714 40.3421L106.331 20.8895L111.694 20.4474L116.212 34.0421L120.4 20.8158H125.506C123.938 25.5807 122.285 30.2719 120.547 34.8895C118.833 39.507 117.498 42.6754 116.543 44.3947C115.857 45.6228 115.086 46.5316 114.229 47.1211C113.396 47.7351 112.38 48.0421 111.18 48.0421Z" fill="white"/>
<path d="M128.407 20.8158H133.477V24.0947C134.26 22.793 135.166 21.8351 136.195 21.2211C137.223 20.607 138.423 20.3 139.795 20.3C141.827 20.3 143.419 20.914 144.57 22.1421C145.721 23.3456 146.296 25.0281 146.296 27.1895V39.7895H141.117V28C141.117 27.0175 140.872 26.2561 140.382 25.7158C139.893 25.1509 139.231 24.8684 138.399 24.8684C137.419 24.8684 136.489 25.2368 135.607 25.9737C134.725 26.7105 134.052 27.6439 133.587 28.7737V39.7895H128.407V20.8158Z" fill="white"/>
<path d="M157.483 40.3421C155.72 40.3421 154.348 39.9 153.369 39.0158C152.414 38.107 151.936 36.8298 151.936 35.1842V25.2737H148.998V20.8158H151.936V16.7632C153.675 16.4684 155.389 16.2474 157.079 16.1V20.8158H161.854V25.2737H157.079V34.2263C157.079 34.7421 157.226 35.1351 157.52 35.4053C157.838 35.6754 158.279 35.8105 158.842 35.8105C159.528 35.8105 160.312 35.6509 161.193 35.3316L162.332 39.2368C160.765 39.9737 159.148 40.3421 157.483 40.3421Z" fill="white"/>
<path d="M166.001 12.8947H171.181V23.5789C171.94 22.4491 172.809 21.6263 173.789 21.1105C174.768 20.5702 175.895 20.3 177.168 20.3C179.201 20.3 180.793 20.914 181.944 22.1421C183.095 23.3456 183.67 25.0281 183.67 27.1895V39.7895H178.491V28C178.491 27.0175 178.246 26.2561 177.756 25.7158C177.266 25.1509 176.605 24.8684 175.772 24.8684C174.866 24.8684 173.997 25.1877 173.164 25.8263C172.356 26.4404 171.695 27.2632 171.181 28.2947V39.7895H166.001V12.8947Z" fill="white"/>
<path d="M199.518 40.2684C197.118 40.2684 195 39.7404 193.164 38.6842C191.327 37.6281 189.894 36.1421 188.866 34.2263C187.862 32.3105 187.36 30.1123 187.36 27.6316C187.36 25.1263 187.862 22.9158 188.866 21C189.87 19.0842 191.29 17.5982 193.127 16.5421C194.963 15.486 197.094 14.9579 199.518 14.9579C201.918 14.9579 204.037 15.486 205.873 16.5421C207.71 17.5737 209.13 19.0351 210.134 20.9263C211.138 22.8175 211.64 25.0035 211.64 27.4842C211.64 30.014 211.138 32.2491 210.134 34.1895C209.13 36.1053 207.71 37.6035 205.873 38.6842C204.037 39.7404 201.918 40.2684 199.518 40.2684ZM199.518 35.5895C201.526 35.5895 203.13 34.8649 204.33 33.4158C205.555 31.9667 206.167 30.0386 206.167 27.6316C206.167 26.0597 205.885 24.6719 205.322 23.4684C204.783 22.2404 204 21.307 202.971 20.6684C201.967 20.0053 200.816 19.6737 199.518 19.6737C198.22 19.6737 197.057 20.0053 196.029 20.6684C195.025 21.307 194.241 22.2404 193.678 23.4684C193.139 24.6719 192.87 26.0597 192.87 27.6316C192.87 29.2035 193.139 30.5912 193.678 31.7947C194.241 32.9982 195.025 33.9316 196.029 34.5947C197.033 35.2579 198.196 35.5895 199.518 35.5895Z" fill="white"/>
<path d="M215.505 20.8158H220.574V24.0947C221.358 22.793 222.264 21.8351 223.292 21.2211C224.321 20.607 225.521 20.3 226.892 20.3C228.925 20.3 230.517 20.914 231.668 22.1421C232.819 23.3456 233.394 25.0281 233.394 27.1895V39.7895H228.215V28C228.215 27.0175 227.97 26.2561 227.48 25.7158C226.99 25.1509 226.329 24.8684 225.496 24.8684C224.517 24.8684 223.586 25.2368 222.705 25.9737C221.823 26.7105 221.15 27.6439 220.684 28.7737V39.7895H215.505V20.8158Z" fill="white"/>
<path d="M247.102 40.3421C244.041 40.3421 241.629 39.4579 239.866 37.6895C238.127 35.9211 237.258 33.4649 237.258 30.3211C237.258 28.2825 237.637 26.514 238.397 25.0158C239.156 23.493 240.221 22.3263 241.592 21.5158C242.988 20.7053 244.617 20.3 246.478 20.3C249.221 20.3 251.327 21.1842 252.796 22.9526C254.265 24.7211 255 27.2754 255 30.6158C255 31.1807 254.988 31.5982 254.963 31.8684H242.474C242.719 33.1702 243.282 34.1649 244.164 34.8526C245.045 35.5158 246.233 35.8474 247.727 35.8474C248.633 35.8474 249.576 35.7368 250.555 35.5158C251.535 35.2702 252.392 34.9509 253.127 34.5579L253.971 38.7211C252.992 39.2368 251.902 39.6298 250.702 39.9C249.527 40.1947 248.327 40.3421 247.102 40.3421ZM250.041 27.9632C249.968 26.907 249.6 26.0719 248.939 25.4579C248.278 24.8193 247.396 24.5 246.294 24.5C245.241 24.5 244.372 24.807 243.686 25.4211C243.025 26.0351 242.609 26.8825 242.437 27.9632H250.041Z" fill="white"/>
<path fill-rule="evenodd" clip-rule="evenodd" d="M41.4846 9.45048L31.0553 11.2174L24.1865 3.0515C22.2275 0.722511 19.1645 -0.393094 16.1514 0.124926L9.44392 1.27808C6.43079 1.7961 3.92527 3.86904 2.87118 6.71605L0.524688 13.0537C-0.529406 15.9007 0.0280646 19.0893 1.98711 21.4183L8.77863 29.4923L5.09117 39.3642C4.02885 42.2082 4.5771 45.3984 6.5294 47.7329L10.8754 52.9298C12.8277 55.2644 15.8874 56.3887 18.902 55.8792L25.6128 54.7451C28.6274 54.2357 31.1389 52.1699 32.2012 49.3259L35.8756 39.4889L46.3541 37.7136C49.3685 37.2029 51.8792 35.1361 52.9403 32.2916L55.3024 25.9597C56.3635 23.1153 55.8139 19.9254 53.8606 17.5916L49.5125 12.3966C47.5592 10.0628 44.499 8.93978 41.4846 9.45048ZM46.518 29.9348L48.8801 23.6028C49.0923 23.034 48.9824 22.396 48.5917 21.9292L44.2436 16.7342C43.8529 16.2674 43.2409 16.0428 42.638 16.1449L36.1279 17.2479L38.5274 20.1005C40.1748 22.0591 40.8311 24.6256 40.3713 27.0856C40.2828 27.5651 40.1519 28.0406 39.9778 28.5068L39.5836 29.562L39.1292 30.7893L31.3286 32.1115L33.1588 27.2117L33.5616 26.1238C33.5943 26.0357 33.6191 25.946 33.6365 25.8556C33.7241 25.3687 33.5936 24.862 33.2688 24.4736L29.9313 20.4826L28.8363 19.1809C28.8034 19.1471 28.7692 19.1148 28.7339 19.0841L23.2068 12.4921L23.2096 12.4916L22.185 11.2735L21.3029 10.2215L21.3027 10.2246L18.9283 7.40188C18.5365 6.93608 17.9239 6.71296 17.3213 6.81657L10.6139 7.96972C10.0112 8.07332 9.51013 8.48791 9.29931 9.05731L6.95282 15.395C6.742 15.9644 6.85349 16.6021 7.2453 17.0679L11.5144 22.1431L12.832 18.611C12.9823 18.208 13.1618 17.8206 13.3676 17.4511C14.6086 15.178 16.8434 13.5675 19.4561 13.126L21.732 12.7414L26.8455 18.8205L20.5716 19.8835C20.0637 19.9695 19.6273 20.2764 19.3755 20.7111C19.3429 20.7733 19.314 20.838 19.289 20.9048L16.8436 27.4515C16.8387 27.4698 16.8341 27.4881 16.8298 27.5065L11.5125 41.7238C11.3 42.2926 11.4097 42.9306 11.8001 43.3975L16.1461 48.5944C16.5366 49.0613 17.1485 49.2862 17.7515 49.1843L24.4622 48.0502C25.0651 47.9483 25.5674 47.5351 25.7799 46.9663L28.0796 40.8097L24.2877 41.4522C21.2733 41.9629 18.2131 40.8398 16.2598 38.5061L14.7576 36.7113L17.5032 29.2629L21.5861 34.1168C21.9779 34.5826 22.5905 34.8058 23.1931 34.7022L29.9006 33.549C29.912 33.547 29.9235 33.545 29.9348 33.5428L38.6337 32.1277L38.6321 32.1321L39.2403 32.029L40.9462 31.7515L40.9449 31.7402L45.2007 31.0192C45.8036 30.917 46.3057 30.5037 46.518 29.9348Z" fill="white"/>
<path d="M21.094 24.4226L23.8759 22.4308C23.5497 22.9573 23.3117 23.5014 23.1605 24.0419C22.4521 24.1336 21.7542 24.2668 21.094 24.4226Z" fill="white"/>
<path d="M19.1537 26.3406C19.4599 26.2311 19.795 26.1205 20.1519 26.0135C21.8469 27.7782 23.5848 28.596 25.1901 28.7799C25.2578 28.8011 25.3272 28.8204 25.3981 28.8379C25.4853 28.8592 25.5727 28.8622 25.6562 28.8491C25.1907 29.326 24.4989 29.7543 23.5138 30.0289L20.4164 28.8635C19.3268 28.4535 18.8664 27.316 19.1537 26.3406Z" fill="white"/>
<path d="M21.6151 25.6298C22.0522 25.5316 22.5045 25.4447 22.9628 25.3754C22.9571 25.8608 23.0275 26.3349 23.1755 26.7709C22.6685 26.4879 22.1458 26.1138 21.6151 25.6298Z" fill="white"/>
<path d="M24.2718 25.2306C24.2021 26.373 24.6763 27.199 25.4767 27.5091C25.6156 27.5213 25.7516 27.5274 25.8846 27.528C26.0664 27.5288 26.2437 27.5194 26.4162 27.5011C26.6718 26.3962 26.128 25.4478 25.3586 25.2068C25.3557 25.2059 25.3529 25.205 25.3501 25.2041C24.9999 25.1966 24.6394 25.2061 24.2718 25.2306Z" fill="white"/>
<path d="M27.4693 25.5154C27.6972 26.0115 27.8025 26.5757 27.7742 27.1482C28.2719 26.9357 28.6915 26.6541 29.0119 26.3567C29.0073 26.3528 29.0028 26.3488 28.9982 26.3448C28.5801 25.9712 28.0612 25.6998 27.4693 25.5154Z" fill="white"/>
<path d="M29.1797 24.8712L28.6585 22.5631C28.4715 21.7352 27.8317 21.1697 27.0912 20.999C27.0483 21.0551 26.9955 21.1051 26.9332 21.1463C25.7252 21.9449 24.9627 22.9481 24.5755 23.9198C26.2006 23.8548 27.8725 24.0683 29.1797 24.8712Z" fill="white"/>
<path d="M27.3847 28.6394C26.991 29.4443 26.3046 30.1683 25.3053 30.7029L27.3569 31.4748C28.91 32.0591 30.4951 30.6962 30.132 29.0887L29.7575 27.4302C29.1428 27.9582 28.3293 28.4034 27.3847 28.6394Z" fill="white"/>
</svg>
