<svg width="40" height="40" viewBox="0 0 40 40" fill="none" xmlns="http://www.w3.org/2000/svg">
<path d="M17.734 9.4997C17.9167 9.0566 18.2299 8.67713 18.6336 8.40994C19.0373 8.14274 19.5131 8 20 8C20.4869 8 20.9627 8.14274 21.3664 8.40994C21.7701 8.67713 22.0834 9.0566 22.266 9.4997C24.0733 9.98766 25.6675 11.0446 26.8037 12.5082C27.9399 13.9718 28.5553 15.761 28.5554 17.6012V23.2371L30.7945 26.5343C30.9173 26.715 30.9878 26.925 30.9986 27.142C31.0093 27.359 30.9598 27.5748 30.8554 27.7663C30.7511 27.9578 30.5957 28.118 30.4058 28.2296C30.216 28.3412 29.9989 28.4001 29.7776 28.4001H24.2349C24.0878 29.3997 23.5787 30.3138 22.8009 30.975C22.0232 31.6361 21.0288 32 20 32C18.9712 32 17.9768 31.6361 17.1991 30.975C16.4213 30.3138 15.9122 29.3997 15.7651 28.4001H10.2224C10.0011 28.4001 9.78398 28.3412 9.59416 28.2296C9.40434 28.118 9.24894 27.9578 9.14456 27.7663C9.04017 27.5748 8.9907 27.359 9.00144 27.142C9.01217 26.925 9.08271 26.715 9.20551 26.5343L11.4446 23.2371V17.6012C11.4446 13.7328 14.109 10.474 17.734 9.4997ZM18.2718 28.4001C18.398 28.7513 18.6321 29.0553 18.9417 29.2704C19.2514 29.4855 19.6213 29.601 20.0006 29.601C20.3799 29.601 20.7499 29.4855 21.0595 29.2704C21.3691 29.0553 21.6032 28.7513 21.7294 28.4001H18.2718ZM20 11.6019C18.3793 11.6019 16.8249 12.2339 15.6789 13.359C14.5328 14.4841 13.889 16.0101 13.889 17.6012V23.6006C13.889 23.8376 13.8176 24.0693 13.6837 24.2665L12.5067 26.0004H27.4921L26.3151 24.2665C26.1816 24.0692 26.1106 23.8375 26.111 23.6006V17.6012C26.111 16.0101 25.4672 14.4841 24.3211 13.359C23.1751 12.2339 21.6207 11.6019 20 11.6019Z" fill="#403E51"/>
</svg>
