<svg width="29" height="29" viewBox="0 0 29 29" fill="none" xmlns="http://www.w3.org/2000/svg">
<path d="M9.66671 25.375H4.83337C4.5129 25.375 4.20556 25.2477 3.97895 25.0211C3.75235 24.7945 3.62504 24.4872 3.62504 24.1667V19.3334C3.62504 19.0129 3.49773 18.7056 3.27113 18.479C3.04452 18.2523 2.73718 18.125 2.41671 18.125C2.09624 18.125 1.78889 18.2523 1.56229 18.479C1.33568 18.7056 1.20837 19.0129 1.20837 19.3334V24.1667C1.20837 25.1281 1.59029 26.0502 2.27011 26.73C2.94993 27.4098 3.87196 27.7917 4.83337 27.7917H9.66671C9.98718 27.7917 10.2945 27.6644 10.5211 27.4378C10.7477 27.2112 10.875 26.9038 10.875 26.5834C10.875 26.2629 10.7477 25.9556 10.5211 25.729C10.2945 25.5023 9.98718 25.375 9.66671 25.375ZM26.5834 18.125C26.2629 18.125 25.9556 18.2523 25.729 18.479C25.5023 18.7056 25.375 19.0129 25.375 19.3334V24.1667C25.375 24.4872 25.2477 24.7945 25.0211 25.0211C24.7945 25.2477 24.4872 25.375 24.1667 25.375H19.3334C19.0129 25.375 18.7056 25.5023 18.479 25.729C18.2523 25.9556 18.125 26.2629 18.125 26.5834C18.125 26.9038 18.2523 27.2112 18.479 27.4378C18.7056 27.6644 19.0129 27.7917 19.3334 27.7917H24.1667C25.1281 27.7917 26.0502 27.4098 26.73 26.73C27.4098 26.0502 27.7917 25.1281 27.7917 24.1667V19.3334C27.7917 19.0129 27.6644 18.7056 27.4378 18.479C27.2112 18.2523 26.9038 18.125 26.5834 18.125ZM24.1667 1.20837H19.3334C19.0129 1.20837 18.7056 1.33568 18.479 1.56229C18.2523 1.78889 18.125 2.09624 18.125 2.41671C18.125 2.73718 18.2523 3.04452 18.479 3.27113C18.7056 3.49773 19.0129 3.62504 19.3334 3.62504H24.1667C24.4872 3.62504 24.7945 3.75235 25.0211 3.97895C25.2477 4.20556 25.375 4.5129 25.375 4.83337V9.66671C25.375 9.98718 25.5023 10.2945 25.729 10.5211C25.9556 10.7477 26.2629 10.875 26.5834 10.875C26.9038 10.875 27.2112 10.7477 27.4378 10.5211C27.6644 10.2945 27.7917 9.98718 27.7917 9.66671V4.83337C27.7917 3.87196 27.4098 2.94993 26.73 2.27011C26.0502 1.59029 25.1281 1.20837 24.1667 1.20837ZM2.41671 10.875C2.73718 10.875 3.04452 10.7477 3.27113 10.5211C3.49773 10.2945 3.62504 9.98718 3.62504 9.66671V4.83337C3.62504 4.5129 3.75235 4.20556 3.97895 3.97895C4.20556 3.75235 4.5129 3.62504 4.83337 3.62504H9.66671C9.98718 3.62504 10.2945 3.49773 10.5211 3.27113C10.7477 3.04452 10.875 2.73718 10.875 2.41671C10.875 2.09624 10.7477 1.78889 10.5211 1.56229C10.2945 1.33568 9.98718 1.20837 9.66671 1.20837H4.83337C3.87196 1.20837 2.94993 1.59029 2.27011 2.27011C1.59029 2.94993 1.20837 3.87196 1.20837 4.83337V9.66671C1.20837 9.98718 1.33568 10.2945 1.56229 10.5211C1.78889 10.7477 2.09624 10.875 2.41671 10.875ZM12.0834 6.04171H7.25004C6.92957 6.04171 6.62223 6.16901 6.39562 6.39562C6.16901 6.62223 6.04171 6.92957 6.04171 7.25004V12.0834C6.04171 12.4038 6.16901 12.7112 6.39562 12.9378C6.62223 13.1644 6.92957 13.2917 7.25004 13.2917H12.0834C12.4038 13.2917 12.7112 13.1644 12.9378 12.9378C13.1644 12.7112 13.2917 12.4038 13.2917 12.0834V7.25004C13.2917 6.92957 13.1644 6.62223 12.9378 6.39562C12.7112 6.16901 12.4038 6.04171 12.0834 6.04171ZM10.875 10.875H8.45837V8.45837H10.875V10.875ZM16.9167 13.2917H21.75C22.0705 13.2917 22.3779 13.1644 22.6045 12.9378C22.8311 12.7112 22.9584 12.4038 22.9584 12.0834V7.25004C22.9584 6.92957 22.8311 6.62223 22.6045 6.39562C22.3779 6.16901 22.0705 6.04171 21.75 6.04171H16.9167C16.5962 6.04171 16.2889 6.16901 16.0623 6.39562C15.8357 6.62223 15.7084 6.92957 15.7084 7.25004V12.0834C15.7084 12.4038 15.8357 12.7112 16.0623 12.9378C16.2889 13.1644 16.5962 13.2917 16.9167 13.2917ZM18.125 8.45837H20.5417V10.875H18.125V8.45837ZM12.0834 15.7084H7.25004C6.92957 15.7084 6.62223 15.8357 6.39562 16.0623C6.16901 16.2889 6.04171 16.5962 6.04171 16.9167V21.75C6.04171 22.0705 6.16901 22.3779 6.39562 22.6045C6.62223 22.8311 6.92957 22.9584 7.25004 22.9584H12.0834C12.4038 22.9584 12.7112 22.8311 12.9378 22.6045C13.1644 22.3779 13.2917 22.0705 13.2917 21.75V16.9167C13.2917 16.5962 13.1644 16.2889 12.9378 16.0623C12.7112 15.8357 12.4038 15.7084 12.0834 15.7084ZM10.875 20.5417H8.45837V18.125H10.875V20.5417ZM16.9167 19.3334C17.2372 19.3334 17.5445 19.2061 17.7711 18.9795C17.9977 18.7529 18.125 18.4455 18.125 18.125C18.4455 18.125 18.7529 17.9977 18.9795 17.7711C19.2061 17.5445 19.3334 17.2372 19.3334 16.9167C19.3334 16.5962 19.2061 16.2889 18.9795 16.0623C18.7529 15.8357 18.4455 15.7084 18.125 15.7084H16.9167C16.5962 15.7084 16.2889 15.8357 16.0623 16.0623C15.8357 16.2889 15.7084 16.5962 15.7084 16.9167V18.125C15.7084 18.4455 15.8357 18.7529 16.0623 18.9795C16.2889 19.2061 16.5962 19.3334 16.9167 19.3334ZM21.75 15.7084C21.4296 15.7084 21.1222 15.8357 20.8956 16.0623C20.669 16.2889 20.5417 16.5962 20.5417 16.9167V20.5417C20.2212 20.5417 19.9139 20.669 19.6873 20.8956C19.4607 21.1222 19.3334 21.4296 19.3334 21.75C19.3334 22.0705 19.4607 22.3779 19.6873 22.6045C19.9139 22.8311 20.2212 22.9584 20.5417 22.9584H21.75C22.0705 22.9584 22.3779 22.8311 22.6045 22.6045C22.8311 22.3779 22.9584 22.0705 22.9584 21.75V16.9167C22.9584 16.5962 22.8311 16.2889 22.6045 16.0623C22.3779 15.8357 22.0705 15.7084 21.75 15.7084ZM16.9167 20.5417C16.6777 20.5417 16.4441 20.6126 16.2454 20.7453C16.0467 20.8781 15.8918 21.0668 15.8004 21.2876C15.7089 21.5084 15.685 21.7514 15.7316 21.9858C15.7782 22.2202 15.8933 22.4355 16.0623 22.6045C16.2313 22.7735 16.4466 22.8885 16.681 22.9352C16.9154 22.9818 17.1583 22.9579 17.3791 22.8664C17.5999 22.7749 17.7886 22.6201 17.9214 22.4214C18.0542 22.2226 18.125 21.989 18.125 21.75C18.125 21.4296 17.9977 21.1222 17.7711 20.8956C17.5445 20.669 17.2372 20.5417 16.9167 20.5417Z" fill="#E5EAFF"/>
</svg>
