<svg width="22" height="22" viewBox="0 0 22 22" fill="none" xmlns="http://www.w3.org/2000/svg">
<path d="M15.9963 15.0007L8.40884 15.0007L16.706 6.71351C16.8942 6.52527 17 6.26996 17 6.00375C17 5.73754 16.8942 5.48223 16.706 5.29399C16.5178 5.10575 16.2625 5 15.9963 5C15.73 5 15.4747 5.10575 15.2865 5.29399L6.99932 13.5912L6.99932 6.00375C6.99932 5.73862 6.894 5.48436 6.70652 5.29688C6.51905 5.10941 6.26479 5.00409 5.99966 5.00409C5.73453 5.00409 5.48027 5.10941 5.29279 5.29688C5.10532 5.48436 5 5.73862 5 6.00375L5 16.0003C5.00158 16.131 5.02875 16.26 5.07997 16.3802C5.18141 16.6245 5.37552 16.8186 5.61979 16.92C5.73997 16.9713 5.86903 16.9984 5.99966 17H15.9963C16.2614 17 16.5156 16.8947 16.7031 16.7072C16.8906 16.5197 16.9959 16.2655 16.9959 16.0003C16.9959 15.7352 16.8906 15.4809 16.7031 15.2935C16.5156 15.106 16.2614 15.0007 15.9963 15.0007Z" fill="#1BBE49"/>
</svg>
