<svg width="29" height="29" viewBox="0 0 29 29" fill="none" xmlns="http://www.w3.org/2000/svg">
<path d="M23.9465 15.4423C23.7521 15.2233 23.645 14.9418 23.645 14.6504C23.645 14.3589 23.7521 14.0775 23.9465 13.8585L25.4983 12.1307C25.6693 11.942 25.7755 11.7044 25.8016 11.4522C25.8278 11.2 25.7725 10.9461 25.6438 10.7269L23.2191 6.57549C23.0917 6.35654 22.8977 6.18299 22.6647 6.07958C22.4318 5.97616 22.1718 5.94816 21.9219 5.99957L19.6426 6.45551C19.3526 6.51481 19.0507 6.46701 18.7939 6.32112C18.537 6.17524 18.343 5.94135 18.2484 5.66361L17.5089 3.46791C17.4276 3.2296 17.2726 3.02261 17.0659 2.8762C16.8593 2.72979 16.6113 2.65137 16.3572 2.65202H11.5077C11.2434 2.63837 10.9817 2.71073 10.7628 2.85805C10.5439 3.00538 10.3797 3.21957 10.2954 3.46791L9.61645 5.66361C9.52189 5.94135 9.32788 6.17524 9.07103 6.32112C8.81418 6.46701 8.51226 6.51481 8.22224 6.45551L5.88239 5.99957C5.64544 5.96643 5.40388 6.00343 5.18814 6.10592C4.97239 6.20841 4.79212 6.37179 4.67004 6.57549L2.24532 10.7269C2.11337 10.9437 2.05404 11.1962 2.07582 11.4483C2.09759 11.7004 2.19936 11.9393 2.36656 12.1307L3.90625 13.8585C4.10062 14.0775 4.20781 14.3589 4.20781 14.6504C4.20781 14.9418 4.10062 15.2233 3.90625 15.4423L2.36656 17.17C2.19936 17.3615 2.09759 17.6004 2.07582 17.8525C2.05404 18.1046 2.11337 18.3571 2.24532 18.5739L4.67004 22.7253C4.79745 22.9442 4.99146 23.1178 5.22439 23.2212C5.45732 23.3246 5.7173 23.3526 5.96726 23.3012L8.24649 22.8453C8.53651 22.786 8.83843 22.8338 9.09528 22.9797C9.35213 23.1255 9.54614 23.3594 9.6407 23.6372L10.3802 25.8329C10.4646 26.0812 10.6288 26.2954 10.8477 26.4427C11.0666 26.5901 11.3282 26.6624 11.5926 26.6488H16.442C16.6962 26.6494 16.9441 26.571 17.1508 26.4246C17.3575 26.2782 17.5124 26.0712 17.5938 25.8329L18.3333 23.6372C18.4279 23.3594 18.6219 23.1255 18.8787 22.9797C19.1356 22.8338 19.4375 22.786 19.7275 22.8453L22.0067 23.3012C22.2567 23.3526 22.5167 23.3246 22.7496 23.2212C22.9825 23.1178 23.1765 22.9442 23.304 22.7253L25.7287 18.5739C25.8574 18.3547 25.9126 18.1007 25.8865 17.8485C25.8604 17.5963 25.7542 17.3588 25.5832 17.17L23.9465 15.4423ZM22.1401 17.0501L23.11 18.1299L21.5582 20.7936L20.1276 20.5056C19.2544 20.329 18.3461 20.4757 17.5751 20.9181C16.8041 21.3605 16.224 22.0676 15.945 22.9053L15.4843 24.2491H12.3806L11.9442 22.8813C11.6652 22.0436 11.0851 21.3365 10.314 20.8941C9.54302 20.4517 8.63471 20.305 7.76155 20.4816L6.33097 20.7696L4.7549 18.1179L5.72479 17.0381C6.32121 16.3781 6.65095 15.5238 6.65095 14.6384C6.65095 13.753 6.32121 12.8987 5.72479 12.2387L4.7549 11.1589L6.30672 8.51922L7.7373 8.80719C8.61047 8.98383 9.51877 8.83704 10.2898 8.39468C11.0608 7.95232 11.6409 7.24519 11.9199 6.40751L12.3806 5.0517H15.4843L15.945 6.41951C16.224 7.25719 16.8041 7.96432 17.5751 8.40668C18.3461 8.84904 19.2544 8.99583 20.1276 8.81918L21.5582 8.53122L23.11 11.1949L22.1401 12.2747C21.5504 12.9331 21.2247 13.7825 21.2247 14.6624C21.2247 15.5423 21.5504 16.3916 22.1401 17.0501ZM13.9324 9.85104C12.9733 9.85104 12.0357 10.1325 11.2382 10.6599C10.4408 11.1872 9.8192 11.9368 9.45216 12.8138C9.08512 13.6907 8.98908 14.6557 9.1762 15.5867C9.36331 16.5177 9.82518 17.3728 10.5034 18.044C11.1816 18.7152 12.0457 19.1723 12.9864 19.3575C13.9271 19.5427 14.9021 19.4477 15.7882 19.0844C16.6744 18.7212 17.4317 18.106 17.9646 17.3168C18.4975 16.5275 18.7819 15.5996 18.7819 14.6504C18.7819 13.3775 18.2709 12.1568 17.3615 11.2567C16.4521 10.3567 15.2186 9.85104 13.9324 9.85104ZM13.9324 17.0501C13.4529 17.0501 12.9841 16.9093 12.5853 16.6456C12.1866 16.382 11.8758 16.0072 11.6923 15.5687C11.5088 15.1302 11.4608 14.6477 11.5543 14.1822C11.6479 13.7167 11.8788 13.2892 12.2179 12.9536C12.557 12.618 12.9891 12.3894 13.4594 12.2968C13.9298 12.2042 14.4173 12.2518 14.8603 12.4334C15.3034 12.615 15.6821 12.9226 15.9485 13.3172C16.2149 13.7118 16.3572 14.1758 16.3572 14.6504C16.3572 15.2868 16.1017 15.8972 15.647 16.3472C15.1923 16.7972 14.5755 17.0501 13.9324 17.0501Z" fill="#E5EAFF"/>
</svg>
