<svg width="29" height="29" viewBox="0 0 29 29" fill="none" xmlns="http://www.w3.org/2000/svg">
<path d="M16.1667 19.6666H9.16672C8.8573 19.6666 8.56055 19.7896 8.34176 20.0084C8.12297 20.2271 8.00005 20.5239 8.00005 20.8333C8.00005 21.1427 8.12297 21.4395 8.34176 21.6583C8.56055 21.8771 8.8573 22 9.16672 22H16.1667C16.4761 22 16.7729 21.8771 16.9917 21.6583C17.2105 21.4395 17.3334 21.1427 17.3334 20.8333C17.3334 20.5239 17.2105 20.2271 16.9917 20.0084C16.7729 19.7896 16.4761 19.6666 16.1667 19.6666ZM11.5 12.6666H13.8334C14.1428 12.6666 14.4395 12.5437 14.6583 12.3249C14.8771 12.1061 15 11.8094 15 11.5C15 11.1906 14.8771 10.8938 14.6583 10.675C14.4395 10.4562 14.1428 10.3333 13.8334 10.3333H11.5C11.1906 10.3333 10.8939 10.4562 10.6751 10.675C10.4563 10.8938 10.3334 11.1906 10.3334 11.5C10.3334 11.8094 10.4563 12.1061 10.6751 12.3249C10.8939 12.5437 11.1906 12.6666 11.5 12.6666ZM25.5 15H22V4.49998C22.0009 4.2944 21.9473 4.09226 21.8449 3.91401C21.7425 3.73577 21.5948 3.58777 21.4167 3.48498C21.2394 3.38258 21.0382 3.32867 20.8334 3.32867C20.6286 3.32867 20.4274 3.38258 20.25 3.48498L16.75 5.49164L13.25 3.48498C13.0727 3.38258 12.8715 3.32867 12.6667 3.32867C12.4619 3.32867 12.2607 3.38258 12.0834 3.48498L8.58338 5.49164L5.08338 3.48498C4.90603 3.38258 4.70484 3.32867 4.50005 3.32867C4.29526 3.32867 4.09407 3.38258 3.91672 3.48498C3.73868 3.58777 3.59096 3.73577 3.48852 3.91401C3.38609 4.09226 3.33257 4.2944 3.33338 4.49998V23.1666C3.33338 24.0949 3.70213 24.9851 4.35851 25.6415C5.01489 26.2979 5.90513 26.6666 6.83338 26.6666H23.1667C24.095 26.6666 24.9852 26.2979 25.6416 25.6415C26.298 24.9851 26.6667 24.0949 26.6667 23.1666V16.1666C26.6667 15.8572 26.5438 15.5605 26.325 15.3417C26.1062 15.1229 25.8095 15 25.5 15ZM6.83338 24.3333C6.52396 24.3333 6.22722 24.2104 6.00843 23.9916C5.78963 23.7728 5.66672 23.4761 5.66672 23.1666V6.51831L8.00005 7.84831C8.18011 7.94236 8.38024 7.99148 8.58338 7.99148C8.78653 7.99148 8.98666 7.94236 9.16672 7.84831L12.6667 5.84164L16.1667 7.84831C16.3468 7.94236 16.5469 7.99148 16.75 7.99148C16.9532 7.99148 17.1533 7.94236 17.3334 7.84831L19.6667 6.51831V23.1666C19.6699 23.5646 19.7409 23.9592 19.8767 24.3333H6.83338ZM24.3334 23.1666C24.3334 23.4761 24.2105 23.7728 23.9917 23.9916C23.7729 24.2104 23.4761 24.3333 23.1667 24.3333C22.8573 24.3333 22.5605 24.2104 22.3418 23.9916C22.123 23.7728 22 23.4761 22 23.1666V17.3333H24.3334V23.1666ZM16.1667 15H9.16672C8.8573 15 8.56055 15.1229 8.34176 15.3417C8.12297 15.5605 8.00005 15.8572 8.00005 16.1666C8.00005 16.4761 8.12297 16.7728 8.34176 16.9916C8.56055 17.2104 8.8573 17.3333 9.16672 17.3333H16.1667C16.4761 17.3333 16.7729 17.2104 16.9917 16.9916C17.2105 16.7728 17.3334 16.4761 17.3334 16.1666C17.3334 15.8572 17.2105 15.5605 16.9917 15.3417C16.7729 15.1229 16.4761 15 16.1667 15Z" fill="#E5EAFF"/>
</svg>
