<svg width="22" height="22" viewBox="0 0 22 22" fill="none" xmlns="http://www.w3.org/2000/svg">
<path d="M6.00375 6.99932L13.5912 6.99932L5.29399 15.2865C5.10575 15.4747 5 15.73 5 15.9962C5 16.2625 5.10575 16.5178 5.29399 16.706C5.48223 16.8942 5.73754 17 6.00375 17C6.26996 17 6.52527 16.8942 6.71351 16.706L15.0007 8.40884L15.0007 15.9963C15.0007 16.2614 15.106 16.5156 15.2935 16.7031C15.4809 16.8906 15.7352 16.9959 16.0003 16.9959C16.2655 16.9959 16.5197 16.8906 16.7072 16.7031C16.8947 16.5156 17 16.2614 17 15.9963L17 5.99966C16.9984 5.86903 16.9713 5.73997 16.92 5.61979C16.8186 5.37552 16.6245 5.18141 16.3802 5.07997C16.26 5.02875 16.131 5.00158 16.0003 5L6.00375 5C5.73862 5 5.48436 5.10532 5.29688 5.29279C5.10941 5.48026 5.00409 5.73453 5.00409 5.99966C5.00409 6.26478 5.10941 6.51905 5.29688 6.70652C5.48436 6.894 5.73862 6.99932 6.00375 6.99932Z" fill="#F87054"/>
</svg>
