<svg width="20" height="18" viewBox="0 0 20 18" fill="none" xmlns="http://www.w3.org/2000/svg">
<path fill-rule="evenodd" clip-rule="evenodd" d="M14 0H6C4.34315 0 3 1.34315 3 3V6.47682C1.13027 7.44894 0 8.83188 0 10.4141C0 13.0669 3.19 15.1568 7.71 15.6982L7.29 16.1421C7.19627 16.2428 7.12188 16.3625 7.07111 16.4945C7.02034 16.6264 6.9942 16.768 6.9942 16.9109C6.9942 17.0539 7.02034 17.1954 7.07111 17.3273C7.12188 17.4593 7.19627 17.579 7.29 17.6797C7.38296 17.7812 7.49356 17.8618 7.61542 17.9167C7.73728 17.9717 7.86799 18 8 18C8.13201 18 8.26272 17.9717 8.38458 17.9167C8.50644 17.8618 8.61704 17.7812 8.71 17.6797L10.71 15.5141C10.801 15.4111 10.8724 15.2897 10.92 15.1568C11.02 14.8931 11.02 14.5974 10.92 14.3338C10.8724 14.2009 10.801 14.0795 10.71 13.9765L8.71 11.8109C8.5217 11.607 8.2663 11.4924 8 11.4924C7.7337 11.4924 7.4783 11.607 7.29 11.8109C7.1017 12.0148 6.99591 12.2913 6.99591 12.5797C6.99591 12.868 7.1017 13.1446 7.29 13.3485L7.41 13.4676C4 12.9478 2 11.4969 2 10.4141C2 9.94228 2.39791 9.39318 3.1318 8.88215C3.50852 10.1085 4.65015 11 6 11H14C15.3499 11 16.4915 10.1085 16.8682 8.88215C17.6021 9.39318 18 9.94228 18 10.4141C18 11.3128 16.55 12.5797 13.79 13.2294C13.6594 13.2565 13.535 13.3115 13.4243 13.3913C13.3135 13.4711 13.2186 13.5739 13.145 13.6939C13.0715 13.8139 13.0207 13.9486 12.9958 14.0901C12.9709 14.2316 12.9724 14.377 13 14.5179C13.0273 14.6574 13.0798 14.7897 13.1544 14.9072C13.2291 15.0247 13.3244 15.125 13.435 15.2025C13.5456 15.28 13.6692 15.333 13.7988 15.3586C13.9283 15.3842 14.0613 15.3819 14.19 15.3517C17.84 14.4854 20 12.6446 20 10.4141C20 8.83188 18.8697 7.44894 17 6.47682V3C17 1.34315 15.6569 0 14 0ZM15 5.6795V3C15 2.44772 14.5523 2 14 2H6C5.44772 2 5 2.44772 5 3V5.6795C6.45404 5.24429 8.15357 5 10 5C11.8464 5 13.546 5.24429 15 5.6795ZM5 7.95541V8C5 8.55228 5.44772 9 6 9H14C14.5523 9 15 8.55228 15 8V7.95541C13.6875 7.48617 11.9901 7.16562 10 7.16562C8.00988 7.16562 6.31247 7.48617 5 7.95541Z" fill="white"/>
</svg>
