<svg width="29" height="29" viewBox="0 0 29 29" fill="none" xmlns="http://www.w3.org/2000/svg">
<path d="M24.2817 4.09694L16.4706 1.22318C15.6616 0.925608 14.3378 0.925608 13.5291 1.22318L5.71797 4.09694C4.22304 4.64682 3 6.37836 3 7.94452V19.2248C3 20.3574 3.7569 21.8389 4.68181 22.5169L12.493 28.242C13.8719 29.2527 16.128 29.2527 17.507 28.242L25.3182 22.5169C26.2431 21.839 27 20.3577 27 19.2248L26.9998 7.94452C26.9998 6.37836 25.7767 4.64683 24.2817 4.09694ZM19.9478 11.8913L13.846 17.8768C13.638 18.0809 13.3656 18.183 13.0932 18.183C12.8208 18.183 12.5481 18.0809 12.3404 17.8768L10.0517 15.6322C9.63573 15.2248 9.63573 14.563 10.0517 14.1549C10.4677 13.7468 11.1416 13.7468 11.5576 14.1549L13.0932 15.6609L18.4421 10.4141C18.8581 10.006 19.532 10.006 19.948 10.4141C20.364 10.822 20.3638 11.4832 19.9478 11.8913Z" fill="#E5EAFF"/>
</svg>
