<svg width="39" height="11" viewBox="0 0 39 11" fill="none" xmlns="http://www.w3.org/2000/svg">
<path d="M27.6561 0.449596C26.7706 0.147818 25.8356 -0.00434672 24.894 9.44811e-05C21.8538 9.44811e-05 19.7052 1.44836 19.6922 3.52101C19.6672 5.04438 21.2153 5.90303 22.3852 6.41643C23.5873 6.94215 23.9892 7.26947 23.9833 7.73579C23.9773 8.45432 23.0226 8.77491 22.1439 8.77491C20.9228 8.77491 20.2605 8.61798 19.2392 8.21444L18.8599 8.04517L18.4271 10.4395C19.1702 10.7254 20.5019 10.9765 21.8764 11C25.1152 11 27.2268 9.56406 27.2506 7.35018C27.2756 6.13619 26.4469 5.21477 24.6812 4.45476C23.6159 3.9649 22.9488 3.63086 22.9488 3.12867C22.9488 2.68478 23.5184 2.21846 24.7074 2.21846C25.4964 2.19982 26.2809 2.3369 27.0104 2.62088L27.3018 2.74307L27.7286 0.437266L27.6561 0.449596ZM35.5593 0.198503H33.1813C32.4382 0.198503 31.8865 0.385702 31.5584 1.08069L26.9879 10.8476H30.2207L30.8723 9.24795L34.8162 9.25356C34.9149 9.62683 35.1931 10.8464 35.1931 10.8464H38.0479L35.5593 0.198503ZM15.3143 0.111069H18.3926L16.4664 10.7646H13.3881L15.3143 0.105464V0.111069ZM7.48711 5.97813L7.8022 7.46115L10.8175 0.198503H14.0813L9.22543 10.8296H5.9759L3.31255 1.82725C3.29214 1.75247 3.25579 1.68239 3.2057 1.6213C3.15562 1.5602 3.09285 1.50937 3.02124 1.4719C2.06455 1.0028 1.04968 0.647716 0 0.414847L0.0368589 0.191778H5.0033C5.67271 0.215318 6.21727 0.414847 6.40275 1.0919L7.48711 5.98374V5.97813ZM31.7498 7.06994L32.9828 4.08709C32.9638 4.11511 33.236 3.47393 33.3906 3.07038L33.6011 3.9862L34.3145 7.06322H31.7498V7.06994Z" fill="white"/>
</svg>
